<?xml version="1.0" standalone="no"?>
<!DOCTYPE svg PUBLIC "-//W3C//DTD SVG 20010904//EN"
 "http://www.w3.org/TR/2001/REC-SVG-20010904/DTD/svg10.dtd">
<svg version="1.0" xmlns="http://www.w3.org/2000/svg"
 width="700.000000pt" height="700.000000pt" viewBox="0 0 700.000000 700.000000"
 preserveAspectRatio="xMidYMid meet">
<metadata>
Created by potrace 1.11, written by Peter Selinger 2001-2013
</metadata>
<g transform="translate(0.000000,700.000000) scale(0.100000,-0.100000)"
fill="#000000" stroke="none">
<path d="M3250 6994 c-19 -2 -82 -9 -140 -15 -1508 -159 -2766 -1322 -3049
-2819 -48 -252 -55 -343 -55 -660 0 -317 7 -408 55 -660 265 -1399 1380 -2514
2779 -2779 252 -48 343 -55 660 -55 317 0 408 7 660 55 1399 265 2514 1380
2779 2779 48 252 55 343 55 660 0 317 -7 408 -55 660 -201 1063 -900 1984
-1875 2473 -347 174 -708 284 -1129 343 -104 14 -600 28 -685 18z m365 -1234
c34 -62 62 -101 81 -112 39 -23 360 -52 404 -37 18 7 48 36 79 77 27 37 60 77
74 90 l25 23 118 -60 c66 -33 124 -64 131 -68 9 -7 5 -31 -17 -101 -37 -114
-38 -157 -5 -206 59 -86 206 -254 234 -266 23 -9 50 -9 123 0 51 6 100 13 109
16 13 4 25 -20 59 -113 64 -181 65 -171 -22 -217 -88 -47 -134 -80 -148 -107
-14 -24 -43 -344 -35 -380 7 -30 43 -66 137 -136 l67 -50 -67 -124 c-79 -145
-77 -144 -204 -105 -129 40 -128 40 -257 -67 l-70 -59 -66 58 c-36 32 -65 59
-65 61 0 2 12 52 26 111 29 122 27 166 -9 221 -22 33 -23 39 -10 57 83 109
114 353 63 494 -36 103 -79 170 -154 246 -196 196 -489 227 -737 78 -94 -57
-193 -178 -238 -292 -77 -195 -28 -449 116 -603 l44 -47 -50 -7 c-28 -4 -54
-4 -59 -1 -5 3 -35 48 -66 100 -31 52 -69 104 -84 114 -39 28 -101 43 -142 33
-33 -7 -190 -73 -307 -128 -53 -24 -87 -65 -102 -120 -6 -23 -12 -10 -39 82
-18 61 -32 115 -32 120 0 6 36 29 81 50 101 49 144 90 152 142 3 21 12 104 18
184 12 139 11 148 -7 179 -16 29 -80 84 -163 142 l-22 16 67 133 c36 74 68
136 70 138 2 2 46 -10 96 -27 111 -38 164 -41 204 -10 125 96 265 222 270 245
7 26 0 133 -11 188 -11 49 18 74 131 111 145 49 147 48 209 -66z m445 -1572
c74 -28 138 -53 142 -57 4 -3 -4 -53 -17 -111 -14 -58 -25 -127 -25 -154 l0
-49 147 -148 c80 -82 161 -155 179 -164 42 -20 89 -19 182 4 151 37 133 44
185 -67 49 -105 87 -197 87 -212 0 -5 -44 -38 -97 -73 -54 -35 -109 -76 -123
-91 l-25 -28 0 -226 c0 -279 -6 -264 151 -358 109 -65 112 -67 103 -93 -68
-180 -114 -284 -127 -289 -9 -3 -64 4 -122 16 -124 26 -152 27 -188 7 -31 -16
-280 -266 -307 -308 -9 -15 -17 -44 -17 -66 1 -31 29 -172 48 -244 6 -18 -30
-37 -200 -108 -110 -46 -112 -45 -190 71 -93 141 -91 140 -306 139 -223 -1
-272 -7 -309 -43 -16 -15 -55 -72 -87 -126 -50 -84 -62 -99 -79 -93 -26 8
-295 120 -300 124 -2 2 8 62 22 132 36 179 40 169 -157 356 -193 183 -153 173
-447 106 -18 -4 -26 4 -48 52 -30 64 -92 205 -105 240 -8 19 -1 27 68 69 118
73 157 107 170 152 9 28 10 99 6 248 l-7 209 -37 35 c-20 19 -75 58 -123 85
-48 28 -87 55 -87 60 0 8 117 311 125 322 1 2 51 -8 111 -22 126 -29 164 -31
202 -11 29 16 289 284 309 320 19 33 15 92 -16 208 l-28 107 51 22 c28 12 101
41 161 66 103 41 111 43 122 26 96 -142 133 -191 161 -210 32 -21 43 -22 230
-22 109 0 214 5 234 10 42 11 78 51 152 172 41 67 51 77 69 72 12 -4 83 -29
157 -57z"/>
<path d="M3350 3476 c-142 -31 -243 -83 -345 -178 -83 -77 -122 -133 -164
-235 -84 -205 -80 -397 14 -584 51 -102 85 -148 160 -217 147 -134 370 -203
563 -173 286 45 496 229 583 511 31 99 31 272 1 370 -74 243 -264 432 -497
495 -84 23 -235 28 -315 11z"/>
</g>
</svg>
